PathFileType	4	(X/Y/Z)	C:/Users/opensim2020/Desktop/walking_exp_matlab/subject02_walking09_straight_02.trc																																																																																																																												
DataRate	CameraRate	NumFrames	NumMarkers	Units	OrigDataRate	OrigDataStartFrame	OrigNumFrames																																																																																																																								
100	100	4	42	mm	100	1541	436																																																																																																																								
Frame#	Time	LFHD			RFHD			LBHD			RBHD			C7			T10			CLAV			STRN			RBAK			LSHO			LUPA			LELB			LFRM			LWRA			LWRB			LFIN			RSHO			RUPA			RELB			RFRM			RWRA			RWRB			RFIN			LASI			RASI			LPSI			RPSI			LTHI			LKNE			LTIB			LANK			LHEE			LTOE			RTHI			RKNE			RTIB			RANK			RHEE			RTOE			*39			*40			*41		
		X1	Y1	Z1	X2	Y2	Z2	X3	Y3	Z3	X4	Y4	Z4	X5	Y5	Z5	X6	Y6	Z6	X7	Y7	Z7	X8	Y8	Z8	X9	Y9	Z9	X10	Y10	Z10	X11	Y11	Z11	X12	Y12	Z12	X13	Y13	Z13	X14	Y14	Z14	X15	Y15	Z15	X16	Y16	Z16	X17	Y17	Z17	X18	Y18	Z18	X19	Y19	Z19	X20	Y20	Z20	X21	Y21	Z21	X22	Y22	Z22	X23	Y23	Z23	X24	Y24	Z24	X25	Y25	Z25	X26	Y26	Z26	X27	Y27	Z27	X28	Y28	Z28	X29	Y29	Z29	X30	Y30	Z30	X31	Y31	Z31	X32	Y32	Z32	X33	Y33	Z33	X34	Y34	Z34	X35	Y35	Z35	X36	Y36	Z36	X37	Y37	Z37	X38	Y38	Z38	X39	Y39	Z39	X40	Y40	Z40	X41	Y41	Z41	X42	Y42	Z42
																																																																																																																															
328	3.27	332.67871	1720.00745	-1497.6582	327.47156	1698.28796	-1355.01465	198.9119	1652.30859	-1510.93005	181.35941	1630.62598	-1369.57263	138.446	1511.62878	-1431.34595	77.56609	1236.02344	-1416.7511	272.5672	1436.00745	-1453.62305	320.9953	1264.49341	-1438.90002	81.97941	1341.91455	-1354.78369	187.56844	1474.77332	-1616.69348	138.27095	1278.79321	-1689.51941	108.95724	1142.91479	-1693.15491	77.81646	1018.70117	-1715.37036	98.57505	878.86115	-1707.18311	48.97874	898.23657	-1727.04517	46.60727	830.94708	-1736.63879	234.24915	1481.51782	-1253.67102	234.59235	1291.66077	-1159.68457	277.41418	1148.92737	-1139.63513	349.52255	1050.2207	-1136.27307	442.03384	958.21265	-1170.33789	403.215	931.36383	-1138.69666	464.61273	893.55206	-1141.24304	314.93161	973.99036	-1555.62842	306.18512	954.89697	-1295.57422	101.49219	1015.17297	-1477.19385	93.84257	1017.05756	-1363.84607	319.62457	675.96521	-1629.52539	359.75348	479.93378	-1602.05212	365.56628	286.81512	-1608.39941	445.21182	75.80013	-1592.06274	424.1283	41.64623	-1537.66321	603.55652	67.88882	-1606.7251	169.65527	659.20349	-1247.30164	119.79626	454.06311	-1289.21729	23.67591	289.83694	-1289.64453	-47.62757	110.13631	-1332.45874	-90.9614	62.89132	-1391.62378	89.96325	34.84123	-1309.08533	231.69141	1789.03625	-1408.84082	NaN	NaN	NaN	NaN	NaN	NaN
329	3.28	340.76569	1719.25964	-1499.58643	335.37305	1697.37146	-1356.9093	206.93616	1651.65039	-1512.98303	189.22572	1629.85608	-1371.69629	146.36705	1510.65515	-1433.63831	86.25027	1234.79407	-1419.35754	280.37799	1435.27332	-1455.78821	329.62079	1264.0083	-1441.177	89.50993	1340.8031	-1357.80798	195.49486	1474.08752	-1618.9408	146.38968	1278.07336	-1691.66846	117.72123	1142.05579	-1695.4115	86.86414	1017.69543	-1717.66077	108.3429	877.81891	-1709.49353	58.47852	897.20483	-1729.29358	56.27862	829.9043	-1739.15808	242.03441	1480.52283	-1255.71521	241.73346	1290.47717	-1161.99939	283.40378	1147.5863	-1142.2782	354.89001	1048.52356	-1139.22083	447.34561	956.26941	-1173.05664	408.49329	929.57623	-1141.68274	469.82587	891.4325	-1144.28723	324.56949	973.61475	-1557.90344	315.1937	954.27972	-1297.771	111.03773	1014.25421	-1479.95618	102.94059	1016.23309	-1366.70825	328.81036	674.60742	-1631.46472	368.20764	478.51483	-1603.08459	371.68228	285.29266	-1609.00537	447.7674	73.08576	-1591.28381	426.04819	39.27183	-1536.89661	605.94464	63.456	-1605.71936	176.77194	659.06421	-1248.46021	126.02753	454.0278	-1289.67041	27.65344	291.1235	-1289.90796	-46.32666	112.43577	-1332.01135	-90.25426	65.91572	-1391.08032	90.11069	34.835	-1308.8772	239.7682	1788.24011	-1410.78357	-2846.04102	1034.06458	3356.89673	NaN	NaN	NaN
330	3.29	348.81638	1718.4325	-1501.70068	343.22067	1696.41663	-1358.85229	214.77315	1651.0459	-1515.33447	197.06017	1629.06824	-1373.922	154.3414	1509.57056	-1435.98523	95.03973	1233.48718	-1422.18433	288.92618	1434.7699	-1458.10278	338.42206	1263.59033	-1443.51282	97.87711	1339.37866	-1360.50806	203.58684	1473.44495	-1621.17407	154.98473	1277.3241	-1694.14795	126.50468	1141.30725	-1697.95007	96.20974	1016.68726	-1720.02808	118.1658	877.20074	-1712.37256	68.26231	896.19531	-1731.72241	66.38951	829.0285	-1741.77344	249.43282	1479.56372	-1257.97754	248.07672	1289.28833	-1164.849	289.33398	1146.15125	-1145.13721	360.37662	1046.74158	-1141.99939	452.67621	954.30823	-1175.77539	413.53375	927.56848	-1144.58569	474.58377	889.08276	-1147.29456	334.59937	973.36035	-1560.22021	324.41055	953.76611	-1299.97192	120.87282	1013.24963	-1483.0542	112.2588	1015.2663	-1369.82214	337.95459	673.41675	-1633.48083	376.22745	476.90128	-1604.12366	377.22507	283.47314	-1609.53894	449.80814	70.23487	-1590.56226	427.47638	37.29811	-1536.13452	607.9361	58.91845	-1604.73389	184.62766	658.75702	-1249.84851	132.67819	454.00021	-1290.09473	31.83227	292.54523	-1290.30298	-44.9086	114.9596	-1331.67798	-89.3261	69.0761	-1390.64978	90.32335	34.78402	-1308.66345	247.71133	1787.51025	-1412.8197	-2845.95288	1034.0332	3356.90088	NaN	NaN	NaN
331	3.3	356.87378	1717.72205	-1503.59399	351.05161	1695.41931	-1360.87878	222.91367	1650.35864	-1517.51135	204.89752	1628.22229	-1376.21045	162.52332	1508.53796	-1438.55603	103.99963	1232.03479	-1425.21191	297.26242	1434.20654	-1460.43311	347.32639	1263.13855	-1445.91357	106.34238	1337.7605	-1363.0708	211.78716	1472.79834	-1623.47791	163.6416	1276.60486	-1696.57861	135.59802	1140.50867	-1700.52979	105.96801	1015.54657	-1721.87561	128.40425	876.44263	-1715.08801	78.37638	895.15179	-1734.16418	76.82655	827.96057	-1744.41516	257.03043	1478.56348	-1260.20923	254.76685	1288.06445	-1167.53784	295.38	1144.63269	-1148.08105	366.15384	1045.18994	-1144.64355	457.51471	952.04022	-1178.54492	418.19806	925.47552	-1147.42615	478.9632	886.42517	-1150.21033	345.04471	973.02832	-1562.48499	333.79059	953.27423	-1302.2627	130.95595	1012.15967	-1486.33484	121.83071	1014.18835	-1373.19238	346.99503	672.00568	-1635.60352	383.66183	475.05536	-1605.26733	382.19223	281.41788	-1609.96558	451.74683	67.35796	-1589.93848	428.59006	34.85049	-1535.55115	609.66504	53.87657	-1603.61389	192.4335	658.82727	-1250.85132	139.52411	454.05878	-1290.4834	36.20317	294.1561	-1290.77441	-43.27363	117.69983	-1331.34412	-88.18962	72.6346	-1390.3844	90.53371	34.7784	-1308.41785	255.88414	1786.54065	-1414.67749	-2845.12817	1034.13416	3360.32959	NaN	NaN	NaN
